<svg version="1.1" id="Layer_1" xmlns="http://www.w3.org/2000/svg" xmlns:xlink="http://www.w3.org/1999/xlink" x="0px" y="0px"
	 width="100%" viewBox="0 0 512 512" enable-background="new 0 0 512 512" xml:space="preserve">
<path fill="#2787F5" opacity="1.000000" stroke="none" 
	d="
M1.000000,377.000000 
	C1.000000,297.312439 1.000000,217.624878 1.398944,137.689514 
	C2.197538,136.425674 2.826581,135.439240 2.962030,134.389130 
	C4.676007,121.100998 5.759741,107.704300 8.101873,94.530434 
	C12.357557,70.593338 21.832678,49.230755 40.633495,32.753689 
	C48.836910,25.564207 57.889584,20.093670 67.920540,15.909112 
	C89.030785,7.102668 111.288589,4.461989 133.805069,2.923184 
	C134.908707,2.847760 135.936752,1.666387 137.000000,1.000002 
	C216.687561,1.000000 296.375122,1.000000 376.310547,1.398981 
	C382.001526,2.531484 387.455994,3.190318 392.885437,4.014094 
	C404.159119,5.724590 415.610992,6.742786 426.644196,9.452299 
	C447.492889,14.572285 466.325897,23.590590 480.908264,40.237469 
	C488.117249,48.467041 493.874512,57.416489 497.965485,67.454674 
	C506.626923,88.707565 509.714966,111.084175 511.078186,133.801880 
	C511.144226,134.902390 512.333679,135.935501 513.000000,137.000000 
	C513.000000,216.687561 513.000000,296.375122 512.602173,376.310242 
	C511.470001,381.669342 510.764069,386.785187 509.995544,391.891632 
	C508.248657,403.498444 507.290283,415.299683 504.528931,426.661621 
	C499.371521,447.882812 490.097382,466.990082 473.005493,481.628235 
	C464.965271,488.514221 456.212677,493.982513 446.498016,497.987854 
	C425.241486,506.751953 402.822235,509.643860 380.107544,511.077850 
	C379.035492,511.145508 378.034210,512.333679 377.000000,513.000000 
	C297.312439,513.000000 217.624878,513.000000 137.727875,512.614746 
	C136.171570,511.819763 134.850677,511.210205 133.473831,511.031494 
	C120.215111,509.310455 106.807556,508.379791 93.711884,505.836426 
	C69.788857,501.190277 48.224495,491.698212 31.923996,472.515625 
	C25.205643,464.609375 19.923836,455.956970 15.985184,446.410339 
	C7.228968,425.186737 4.293396,402.831635 2.921891,380.150085 
	C2.856297,379.065308 1.666347,378.048462 1.000000,377.000000 
M384.261353,243.795349 
	C393.686218,228.683716 403.386139,213.733841 412.412292,198.387695 
	C416.516876,191.409195 419.887024,183.852203 422.518585,176.189545 
	C426.117157,165.711136 422.435120,161.120255 411.320374,161.025436 
	C399.490845,160.924515 387.657684,161.135818 375.830048,160.954666 
	C366.968872,160.818954 361.255402,164.613007 357.499756,172.755798 
	C351.790894,185.133301 345.772156,197.409546 339.116608,209.298645 
	C329.912109,225.741135 319.757019,241.617508 305.402222,254.243027 
	C302.016510,257.220886 298.150665,260.751129 293.438843,258.708344 
	C288.591370,256.606720 289.044708,251.336090 289.037872,246.841782 
	C289.002655,223.680923 289.024353,200.519989 289.013306,177.359070 
	C289.012268,175.194290 289.079468,173.011978 288.842102,170.868011 
	C288.075531,163.943680 285.022552,161.111526 278.081055,161.027115 
	C269.750977,160.925812 261.418823,160.998596 253.087555,160.998901 
	C242.090286,160.999313 231.092987,160.990326 220.095764,161.011047 
	C216.137054,161.018509 212.947113,162.486328 211.074966,166.151016 
	C209.225967,169.770416 210.536148,172.931427 212.652512,175.926605 
	C213.324768,176.878006 214.035629,177.807907 214.793915,178.691788 
	C222.090027,187.196335 225.013412,197.201675 225.005981,208.232544 
	C224.994049,225.894821 225.006134,243.557114 224.992203,261.219391 
	C224.990753,263.050629 225.003830,264.895294 224.802521,266.710724 
	C223.833344,275.450623 218.851059,277.829224 211.947586,272.441071 
	C207.919388,269.297089 204.242584,265.537537 201.015701,261.561462 
	C188.661133,246.338593 179.172043,229.308212 171.145996,211.522568 
	C165.336838,198.649567 160.381378,185.388916 155.138733,172.263779 
	C152.684174,166.118713 149.005035,161.272430 141.871902,161.153336 
	C127.880486,160.919754 113.876450,160.854507 99.889191,161.194778 
	C92.366501,161.377808 88.809662,165.521255 89.841530,172.977310 
	C90.793495,179.855972 92.360565,186.746826 94.534531,193.343002 
	C107.169662,231.680176 127.319283,266.058380 150.888702,298.545227 
	C169.673660,324.437408 193.129730,344.604248 223.345413,356.170105 
	C239.790070,362.464722 256.778625,364.914886 274.338928,363.007629 
	C285.569580,361.787811 288.991486,358.098602 289.015533,347.089935 
	C289.039185,336.259369 288.953522,325.427887 289.065308,314.598358 
	C289.175323,303.937012 293.974335,300.536865 304.208984,303.900391 
	C307.025360,304.825928 309.909882,306.006500 312.281860,307.731750 
	C318.464722,312.228851 324.858246,316.603363 330.301910,321.914215 
	C340.905670,332.259247 350.903351,343.224640 361.181793,353.904449 
	C365.493134,358.384125 370.006348,363.113434 376.603058,363.257874 
	C391.407379,363.582123 406.242645,363.729492 421.029755,363.105865 
	C428.994415,362.769958 432.756836,356.940979 430.145233,349.424042 
	C428.048767,343.389923 425.283081,337.152374 421.250488,332.306488 
	C407.739288,316.070160 393.531677,300.413147 379.578735,284.544830 
	C377.161469,281.795746 374.603302,279.167023 372.256500,276.360352 
	C368.606567,271.995239 368.311890,267.370544 371.554749,262.601593 
	C375.674286,256.543427 379.781372,250.476852 384.261353,243.795349 
z"/>
<path fill="#000000" opacity="1.000000" stroke="none" 
	d="
M513.000000,136.531342 
	C512.333679,135.935501 511.144226,134.902390 511.078186,133.801880 
	C509.714966,111.084175 506.626923,88.707565 497.965485,67.454674 
	C493.874512,57.416489 488.117249,48.467041 480.908264,40.237469 
	C466.325897,23.590590 447.492889,14.572285 426.644196,9.452299 
	C415.610992,6.742786 404.159119,5.724590 392.885437,4.014094 
	C387.455994,3.190318 382.001526,2.531484 376.779205,1.398981 
	C422.260315,1.000000 467.520630,1.000000 513.000000,1.000000 
	C513.000000,46.020657 513.000000,91.041672 513.000000,136.531342 
z"/>
<path fill="#000000" opacity="1.000000" stroke="none" 
	d="
M377.468658,513.000000 
	C378.034210,512.333679 379.035492,511.145508 380.107544,511.077850 
	C402.822235,509.643860 425.241486,506.751953 446.498016,497.987854 
	C456.212677,493.982513 464.965271,488.514221 473.005493,481.628235 
	C490.097382,466.990082 499.371521,447.882812 504.528931,426.661621 
	C507.290283,415.299683 508.248657,403.498444 509.995544,391.891632 
	C510.764069,386.785187 511.470001,381.669342 512.602173,376.778870 
	C513.000000,422.260315 513.000000,467.520630 513.000000,513.000000 
	C467.979340,513.000000 422.958344,513.000000 377.468658,513.000000 
z"/>
<path fill="#000000" opacity="1.000000" stroke="none" 
	d="
M1.000000,377.468658 
	C1.666347,378.048462 2.856297,379.065308 2.921891,380.150085 
	C4.293396,402.831635 7.228968,425.186737 15.985184,446.410339 
	C19.923836,455.956970 25.205643,464.609375 31.923996,472.515625 
	C48.224495,491.698212 69.788857,501.190277 93.711884,505.836426 
	C106.807556,508.379791 120.215111,509.310455 133.473831,511.031494 
	C134.850677,511.210205 136.171570,511.819763 137.259216,512.614746 
	C91.739685,513.000000 46.479374,513.000000 1.000000,513.000000 
	C1.000000,467.979340 1.000000,422.958344 1.000000,377.468658 
z"/>
<path fill="#000000" opacity="1.000000" stroke="none" 
	d="
M136.531342,1.000002 
	C135.936752,1.666387 134.908707,2.847760 133.805069,2.923184 
	C111.288589,4.461989 89.030785,7.102668 67.920540,15.909112 
	C57.889584,20.093670 48.836910,25.564207 40.633495,32.753689 
	C21.832678,49.230755 12.357557,70.593338 8.101873,94.530434 
	C5.759741,107.704300 4.676007,121.100998 2.962030,134.389130 
	C2.826581,135.439240 2.197538,136.425674 1.398944,137.220856 
	C1.000000,91.739677 1.000000,46.479355 1.000000,1.000000 
	C46.020657,1.000000 91.041672,1.000000 136.531342,1.000002 
z"/>
<path fill="#FEFFFF" opacity="1.000000" stroke="none" 
	d="
M384.077576,244.104630 
	C379.781372,250.476852 375.674286,256.543427 371.554749,262.601593 
	C368.311890,267.370544 368.606567,271.995239 372.256500,276.360352 
	C374.603302,279.167023 377.161469,281.795746 379.578735,284.544830 
	C393.531677,300.413147 407.739288,316.070160 421.250488,332.306488 
	C425.283081,337.152374 428.048767,343.389923 430.145233,349.424042 
	C432.756836,356.940979 428.994415,362.769958 421.029755,363.105865 
	C406.242645,363.729492 391.407379,363.582123 376.603058,363.257874 
	C370.006348,363.113434 365.493134,358.384125 361.181793,353.904449 
	C350.903351,343.224640 340.905670,332.259247 330.301910,321.914215 
	C324.858246,316.603363 318.464722,312.228851 312.281860,307.731750 
	C309.909882,306.006500 307.025360,304.825928 304.208984,303.900391 
	C293.974335,300.536865 289.175323,303.937012 289.065308,314.598358 
	C288.953522,325.427887 289.039185,336.259369 289.015533,347.089935 
	C288.991486,358.098602 285.569580,361.787811 274.338928,363.007629 
	C256.778625,364.914886 239.790070,362.464722 223.345413,356.170105 
	C193.129730,344.604248 169.673660,324.437408 150.888702,298.545227 
	C127.319283,266.058380 107.169662,231.680176 94.534531,193.343002 
	C92.360565,186.746826 90.793495,179.855972 89.841530,172.977310 
	C88.809662,165.521255 92.366501,161.377808 99.889191,161.194778 
	C113.876450,160.854507 127.880486,160.919754 141.871902,161.153336 
	C149.005035,161.272430 152.684174,166.118713 155.138733,172.263779 
	C160.381378,185.388916 165.336838,198.649567 171.145996,211.522568 
	C179.172043,229.308212 188.661133,246.338593 201.015701,261.561462 
	C204.242584,265.537537 207.919388,269.297089 211.947586,272.441071 
	C218.851059,277.829224 223.833344,275.450623 224.802521,266.710724 
	C225.003830,264.895294 224.990753,263.050629 224.992203,261.219391 
	C225.006134,243.557114 224.994049,225.894821 225.005981,208.232544 
	C225.013412,197.201675 222.090027,187.196335 214.793915,178.691788 
	C214.035629,177.807907 213.324768,176.878006 212.652512,175.926605 
	C210.536148,172.931427 209.225967,169.770416 211.074966,166.151016 
	C212.947113,162.486328 216.137054,161.018509 220.095764,161.011047 
	C231.092987,160.990326 242.090286,160.999313 253.087555,160.998901 
	C261.418823,160.998596 269.750977,160.925812 278.081055,161.027115 
	C285.022552,161.111526 288.075531,163.943680 288.842102,170.868011 
	C289.079468,173.011978 289.012268,175.194290 289.013306,177.359070 
	C289.024353,200.519989 289.002655,223.680923 289.037872,246.841782 
	C289.044708,251.336090 288.591370,256.606720 293.438843,258.708344 
	C298.150665,260.751129 302.016510,257.220886 305.402222,254.243027 
	C319.757019,241.617508 329.912109,225.741135 339.116608,209.298645 
	C345.772156,197.409546 351.790894,185.133301 357.499756,172.755798 
	C361.255402,164.613007 366.968872,160.818954 375.830048,160.954666 
	C387.657684,161.135818 399.490845,160.924515 411.320374,161.025436 
	C422.435120,161.120255 426.117157,165.711136 422.518585,176.189545 
	C419.887024,183.852203 416.516876,191.409195 412.412292,198.387695 
	C403.386139,213.733841 393.686218,228.683716 384.077576,244.104630 
z"/>
</svg>